# xmcd
#
# Track frame offsets: 
#        150
#        22340
#        47257
#        69459
#        95923
#        118237
#        144304
#        168299
#        188794
#        212926
#        235723
#        260230
#
# Disc length: 3762 seconds
#
# Revision: 0
# Processed by: cddbd v1.5.2PL0 Copyright (c) Steve Scherf et al.
# Submitted via: ExactAudioCopyFreeDBPlugin 1.0
#
DISCID=b30eb00c
DTITLE=紫水晶 - STE20西藏情Ⅱ
DYEAR=2009
DGENRE=STE
TTITLE0=爱琴海
TTITLE1=梦见你的那一夜
TTITLE2=吉祥如意
TTITLE3=玛尼墙
TTITLE4=姑娘我爱你
TTITLE5=高原蓝
TTITLE6=佛
TTITLE7=美丽的高原红
TTITLE8=手心里的温柔
TTITLE9=爱人天堂
TTITLE10=慈祥的母亲
TTITLE11=回来吧我的心上人
EXTD=
EXTT0=
EXTT1=
EXTT2=
EXTT3=
EXTT4=
EXTT5=
EXTT6=
EXTT7=
EXTT8=
EXTT9=
EXTT10=
EXTT11=
PLAYORDER=
